PathFileType	4	(X/Y/Z)	 s05c0102.trc
DataRate	CameraRate	NumFrames	NumMarkers	Units	OrigDataRate	OrigDataStartFrame	OrigNumFrames
200	200	4	50	mm	200	251	2000
Frame#	Time	racr			lacr			c7			jug			rlel			rdr			llel			ldr			s2			lic			ric			lasi			rasi			rpsi			lpsi			rgt			lgt			rth1			rth2			rth3			rth4			rlfc			rmfc			rsh1			rsh2			rsh3			rsh4			rlmal			rmmal			rcal			rtoe			rmt5			lth1			lth2			lth4			lth3			llfc			lmfc			lsh1			lsh2			lsh3			lsh4			llmal			lmmal			lcal			ltoe			lmt5			SBIKE			LBIKE			RBIKE			
		X1	Y1	Z1	X2	Y2	Z2	X3	Y3	Z3	X4	Y4	Z4	X5	Y5	Z5	X6	Y6	Z6	X7	Y7	Z7	X8	Y8	Z8	X9	Y9	Z9	X10	Y10	Z10	X11	Y11	Z11	X12	Y12	Z12	X13	Y13	Z13	X14	Y14	Z14	X15	Y15	Z15	X16	Y16	Z16	X17	Y17	Z17	X18	Y18	Z18	X19	Y19	Z19	X20	Y20	Z20	X21	Y21	Z21	X22	Y22	Z22	X23	Y23	Z23	X24	Y24	Z24	X25	Y25	Z25	X26	Y26	Z26	X27	Y27	Z27	X28	Y28	Z28	X29	Y29	Z29	X30	Y30	Z30	X31	Y31	Z31	X32	Y32	Z32	X33	Y33	Z33	X34	Y34	Z34	X35	Y35	Z35	X36	Y36	Z36	X37	Y37	Z37	X38	Y38	Z38	X39	Y39	Z39	X40	Y40	Z40	X41	Y41	Z41	X42	Y42	Z42	X43	Y43	Z43	X44	Y44	Z44	X45	Y45	Z45	X46	Y46	Z46	X47	Y47	Z47	X48	Y48	Z48	X49	Y49	Z49	X50	Y50	Z50	
251	1.2550	415.436184	1360.509887	-131.458789	425.756001	1380.337725	-401.265205	390.457349	1446.768090	-270.036057	376.699441	1289.728026	-272.068993	532.615628	1127.333931	-57.201287	701.968709	915.385118	-88.958134	528.512026	1130.439737	-483.827793	763.749325	1034.120856	-451.751236	-139.954069	1169.613526	-262.612831	12.865520	1175.945095	-405.100174	20.216606	1193.579555	-126.954261	57.508952	1121.363961	-371.441862	51.517642	1128.137526	-152.814038	-101.714603	1216.636808	-221.407769	-100.119770	1217.049598	-308.474546	-37.377447	1067.196872	-88.415959	-66.363430	1073.989853	-433.954742	61.326910	1001.739962	-72.608842	148.242751	980.970588	-65.141279	211.011094	919.182321	-68.365352	165.556737	1012.150075	-75.882323	340.381683	837.792625	-92.260656	332.361801	835.700287	-203.128854	287.282462	739.422407	-72.297074	290.975004	651.050552	-85.539916	253.075523	574.504047	-93.236566	322.102699	648.361245	-108.914560	231.216056	442.195334	-108.943936	241.506628	476.830073	-185.839278	165.099380	403.613197	-156.515317	460.262430	411.222621	-145.057582	360.841638	376.608427	-82.608159	20.575496	961.735541	-458.525607	95.623557	919.468724	-462.049271	122.378962	943.148976	-450.101163	140.053166	840.819559	-466.207923	224.819256	717.478042	-439.746393	218.322424	708.449771	-330.301860	134.336760	629.572341	-459.790607	97.545066	551.038007	-446.122800	24.493415	500.716617	-443.436940	122.606861	534.252803	-422.416462	-49.253705	402.687809	-431.974509	-13.777389	423.093828	-356.774246	-121.390521	383.037357	-387.566312	150.582835	271.403226	-395.965103	40.007488	282.053517	-458.078715	-215.764254	913.721752	-268.573578	-43.649506	84.900819	-475.076384	-51.947773	80.293533	-77.359155	
252	1.2600	415.380395	1360.463511	-131.393302	425.737766	1380.308684	-401.230713	390.468024	1446.725370	-270.004234	376.626699	1289.652659	-272.067504	532.560590	1127.302406	-57.127095	701.963718	915.431673	-88.934485	528.483920	1130.420725	-483.830965	764.763488	1035.782773	-447.054894	-139.993930	1169.610470	-262.607580	12.833652	1175.969155	-405.100245	20.185721	1193.572658	-126.955373	57.476556	1121.356594	-371.438180	51.479308	1128.135822	-152.815654	-101.749229	1216.640852	-221.390821	-100.167285	1217.052562	-308.460101	-37.431109	1067.191488	-88.405785	-66.383306	1073.998498	-433.957598	61.276198	1001.722222	-72.591303	148.184460	980.966156	-65.115814	210.970219	919.178982	-68.343123	165.507892	1012.154568	-75.861124	340.353754	837.800945	-92.250118	332.326299	835.719638	-203.114787	287.268099	739.454928	-72.286468	290.971146	651.040952	-85.515932	253.080061	574.503261	-93.223761	322.083076	648.365675	-108.910822	231.219946	442.201865	-108.937106	241.546588	476.811564	-185.841002	165.111894	403.634563	-156.493051	460.268368	411.217968	-145.049411	360.844251	376.606293	-82.613280	20.558265	961.756632	-458.530122	95.601718	919.455108	-462.049838	122.358877	943.144128	-450.091946	140.020145	840.811749	-466.188319	224.785382	717.474240	-439.744033	218.294443	708.457738	-330.312760	134.300468	629.567965	-459.794330	97.519729	551.014369	-446.128602	24.467541	500.694536	-443.437768	122.571095	534.234803	-422.410476	-49.280421	402.702934	-431.977594	-13.776876	423.080809	-356.778738	-121.432784	383.013478	-387.575540	150.578794	271.423861	-395.959537	40.002707	282.047491	-458.072180	-215.768525	913.710882	-268.552495	-43.645535	84.899772	-475.075999	-51.940904	80.297834	-77.360358	
253	1.2650	415.346356	1360.403629	-131.347971	425.697475	1380.272918	-401.173457	390.466005	1446.675525	-269.946664	376.526947	1289.595525	-271.979933	532.498839	1127.263045	-57.065423	701.926723	915.439101	-88.914231	528.465556	1130.390131	-483.810110	764.861488	1035.786414	-446.930651	-140.018511	1169.605285	-262.602143	12.797231	1175.990214	-405.095938	20.129744	1193.553758	-126.961202	57.434523	1121.384258	-371.407199	51.445121	1128.149524	-152.802147	-101.798615	1216.642645	-221.384265	-100.197841	1217.059534	-308.434497	-37.470328	1067.168186	-88.410446	-66.400785	1074.002773	-433.949766	61.225051	1001.711370	-72.574155	148.148085	980.968878	-65.096953	210.927739	919.198400	-68.340191	165.448999	1012.146025	-75.832354	340.323522	837.804816	-92.218479	332.302343	835.738963	-203.087511	287.249931	739.423402	-72.260875	290.959995	651.047746	-85.518435	253.082081	574.486718	-93.208477	322.069499	648.382420	-108.898185	231.219922	442.201871	-108.937074	241.516261	476.820457	-185.811747	165.114291	403.621262	-156.492005	460.268751	411.214443	-145.056440	360.858111	376.588462	-82.620951	20.535157	961.761482	-458.540980	95.571148	919.467527	-462.045053	122.340070	943.146649	-450.082811	139.992120	840.799047	-466.189274	224.742231	717.474124	-439.742877	218.254882	708.453127	-330.334651	134.274759	629.550701	-459.774421	97.493978	551.021562	-446.144433	24.435119	500.683023	-443.435675	122.538591	534.250816	-422.413346	-49.319695	402.691228	-431.978484	-13.826715	423.085866	-356.777917	-121.460244	382.996265	-387.562889	150.557430	271.446257	-395.978402	39.982010	282.055710	-458.069301	-215.766052	913.720916	-268.565949	-43.659270	84.907677	-475.075155	-51.904836	80.100167	-77.526277	
254	1.2700	415.279207	1360.386555	-131.289791	425.699033	1380.226828	-401.140734	390.448219	1446.603438	-269.880783	376.450059	1289.534224	-271.939321	532.433260	1127.236467	-57.019660	701.891793	915.448732	-88.908154	528.416534	1130.369639	-483.813960	763.758673	1034.108363	-451.737061	-140.070935	1169.608278	-262.573220	12.768096	1175.993713	-405.075272	20.097583	1193.570067	-126.919235	57.397930	1121.390452	-371.402020	51.398851	1128.128874	-152.773241	-101.842615	1216.656244	-221.350192	-100.237377	1217.062058	-308.424237	-37.516821	1067.166645	-88.401461	-66.425171	1074.004828	-433.944446	61.196183	1001.715528	-72.565256	148.098240	980.976970	-65.061045	210.897906	919.208599	-68.317679	165.413353	1012.156900	-75.804168	340.300674	837.818821	-92.192704	332.261891	835.745165	-203.082501	287.239937	739.414237	-72.237595	290.945212	651.046169	-85.494187	253.073519	574.477544	-93.195791	322.069561	648.380751	-108.888070	231.235062	442.192626	-108.915264	241.511672	476.818181	-185.805909	165.092019	403.654098	-156.463339	460.270898	411.210683	-145.063014	360.841368	376.597523	-82.603963	20.505377	961.776674	-458.531142	95.547005	919.457096	-462.035922	122.307011	943.141582	-450.093809	139.952203	840.802474	-466.180313	224.696911	717.472082	-439.735176	218.197247	708.453353	-330.320110	134.239309	629.536976	-459.790120	97.458727	550.979924	-446.118073	24.413627	500.660964	-443.439712	122.511733	534.237284	-422.397326	-49.332324	402.679610	-431.974573	-13.840861	423.065609	-356.784335	-121.480594	382.967613	-387.571385	150.546067	271.457107	-395.957925	39.974275	282.065667	-458.079279	-215.782414	913.724371	-268.572291	-43.642438	84.903884	-475.079417	-51.898832	80.085864	-77.527483	
